# Tiled2Unity generated file. Do not modify by hand.
# Wavefront file for 'Pueblo_mesh_0004.obj'

# Vertices (Count = 484)
v 0 -1 0
v -1 -1 0
v -1 0 0
v 0 0 0
v -1 -1 0
v -2 -1 0
v -2 0 0
v -1 0 0
v -2 -1 0
v -3 -1 0
v -3 0 0
v -2 0 0
v -3 -1 0
v -4 -1 0
v -4 0 0
v -3 0 0
v -4 -1 0
v -5 -1 0
v -5 0 0
v -4 0 0
v -5 -1 0
v -6 -1 0
v -6 0 0
v -5 0 0
v -6 -1 0
v -7 -1 0
v -7 0 0
v -6 0 0
v -7 -1 0
v -8 -1 0
v -8 0 0
v -7 0 0
v -8 -1 0
v -9 -1 0
v -9 0 0
v -8 0 0
v -9 -1 0
v -10 -1 0
v -10 0 0
v -9 0 0
v -10 -1 0
v -11 -1 0
v -11 0 0
v -10 0 0
v -11 -1 0
v -12 -1 0
v -12 0 0
v -11 0 0
v -12 -1 0
v -13 -1 0
v -13 0 0
v -12 0 0
v -13 -1 0
v -14 -1 0
v -14 0 0
v -13 0 0
v -14 -1 0
v -15 -1 0
v -15 0 0
v -14 0 0
v -15 -1 0
v -16 -1 0
v -16 0 0
v -15 0 0
v -16 -1 0
v -17 -1 0
v -17 0 0
v -16 0 0
v -17 -1 0
v -18 -1 0
v -18 0 0
v -17 0 0
v -18 -1 0
v -19 -1 0
v -19 0 0
v -18 0 0
v -19 -1 0
v -20 -1 0
v -20 0 0
v -19 0 0
v 0 -2 0
v -1 -2 0
v -1 -1 0
v 0 -1 0
v -3 -2 0
v -4 -2 0
v -4 -1 0
v -3 -1 0
v -4 -2 0
v -5 -2 0
v -5 -1 0
v -4 -1 0
v -5 -2 0
v -6 -2 0
v -6 -1 0
v -5 -1 0
v -6 -2 0
v -7 -2 0
v -7 -1 0
v -6 -1 0
v -7 -2 0
v -8 -2 0
v -8 -1 0
v -7 -1 0
v -8 -2 0
v -9 -2 0
v -9 -1 0
v -8 -1 0
v -9 -2 0
v -10 -2 0
v -10 -1 0
v -9 -1 0
v -10 -2 0
v -11 -2 0
v -11 -1 0
v -10 -1 0
v -11 -2 0
v -12 -2 0
v -12 -1 0
v -11 -1 0
v -17 -2 0
v -18 -2 0
v -18 -1 0
v -17 -1 0
v -18 -2 0
v -19 -2 0
v -19 -1 0
v -18 -1 0
v -19 -2 0
v -20 -2 0
v -20 -1 0
v -19 -1 0
v 0 -3 0
v -1 -3 0
v -1 -2 0
v 0 -2 0
v -1 -3 0
v -2 -3 0
v -2 -2 0
v -1 -2 0
v -16 -3 0
v -17 -3 0
v -17 -2 0
v -16 -2 0
v -17 -3 0
v -18 -3 0
v -18 -2 0
v -17 -2 0
v -18 -3 0
v -19 -3 0
v -19 -2 0
v -18 -2 0
v -19 -3 0
v -20 -3 0
v -20 -2 0
v -19 -2 0
v 0 -4 0
v -1 -4 0
v -1 -3 0
v 0 -3 0
v -1 -4 0
v -2 -4 0
v -2 -3 0
v -1 -3 0
v -16 -4 0
v -17 -4 0
v -17 -3 0
v -16 -3 0
v -17 -4 0
v -18 -4 0
v -18 -3 0
v -17 -3 0
v -18 -4 0
v -19 -4 0
v -19 -3 0
v -18 -3 0
v -19 -4 0
v -20 -4 0
v -20 -3 0
v -19 -3 0
v 0 -5 0
v -1 -5 0
v -1 -4 0
v 0 -4 0
v -1 -5 0
v -2 -5 0
v -2 -4 0
v -1 -4 0
v -16 -5 0
v -17 -5 0
v -17 -4 0
v -16 -4 0
v -17 -5 0
v -18 -5 0
v -18 -4 0
v -17 -4 0
v -18 -5 0
v -19 -5 0
v -19 -4 0
v -18 -4 0
v -19 -5 0
v -20 -5 0
v -20 -4 0
v -19 -4 0
v 0 -6 0
v -1 -6 0
v -1 -5 0
v 0 -5 0
v -1 -6 0
v -2 -6 0
v -2 -5 0
v -1 -5 0
v -17 -6 0
v -18 -6 0
v -18 -5 0
v -17 -5 0
v -18 -6 0
v -19 -6 0
v -19 -5 0
v -18 -5 0
v -19 -6 0
v -20 -6 0
v -20 -5 0
v -19 -5 0
v 0 -7 0
v -1 -7 0
v -1 -6 0
v 0 -6 0
v -1 -7 0
v -2 -7 0
v -2 -6 0
v -1 -6 0
v -17 -7 0
v -18 -7 0
v -18 -6 0
v -17 -6 0
v -18 -7 0
v -19 -7 0
v -19 -6 0
v -18 -6 0
v -19 -7 0
v -20 -7 0
v -20 -6 0
v -19 -6 0
v 0 -8 0
v -1 -8 0
v -1 -7 0
v 0 -7 0
v -1 -8 0
v -2 -8 0
v -2 -7 0
v -1 -7 0
v -17 -8 0
v -18 -8 0
v -18 -7 0
v -17 -7 0
v -18 -8 0
v -19 -8 0
v -19 -7 0
v -18 -7 0
v -19 -8 0
v -20 -8 0
v -20 -7 0
v -19 -7 0
v 0 -9 0
v -1 -9 0
v -1 -8 0
v 0 -8 0
v -1 -9 0
v -2 -9 0
v -2 -8 0
v -1 -8 0
v -18 -9 0
v -19 -9 0
v -19 -8 0
v -18 -8 0
v -19 -9 0
v -20 -9 0
v -20 -8 0
v -19 -8 0
v 0 -10 0
v -1 -10 0
v -1 -9 0
v 0 -9 0
v -1 -10 0
v -2 -10 0
v -2 -9 0
v -1 -9 0
v -18 -10 0
v -19 -10 0
v -19 -9 0
v -18 -9 0
v -19 -10 0
v -20 -10 0
v -20 -9 0
v -19 -9 0
v 0 -11 0
v -1 -11 0
v -1 -10 0
v 0 -10 0
v -1 -11 0
v -2 -11 0
v -2 -10 0
v -1 -10 0
v -19 -11 0
v -20 -11 0
v -20 -10 0
v -19 -10 0
v 0 -12 0
v -1 -12 0
v -1 -11 0
v 0 -11 0
v -1 -12 0
v -2 -12 0
v -2 -11 0
v -1 -11 0
v -19 -12 0
v -20 -12 0
v -20 -11 0
v -19 -11 0
v 0 -13 0
v -1 -13 0
v -1 -12 0
v 0 -12 0
v -1 -13 0
v -2 -13 0
v -2 -12 0
v -1 -12 0
v -19 -13 0
v -20 -13 0
v -20 -12 0
v -19 -12 0
v 0 -14 0
v -1 -14 0
v -1 -13 0
v 0 -13 0
v -1 -14 0
v -2 -14 0
v -2 -13 0
v -1 -13 0
v -18 -14 0
v -19 -14 0
v -19 -13 0
v -18 -13 0
v -19 -14 0
v -20 -14 0
v -20 -13 0
v -19 -13 0
v 0 -15 0
v -1 -15 0
v -1 -14 0
v 0 -14 0
v -1 -15 0
v -2 -15 0
v -2 -14 0
v -1 -14 0
v -18 -15 0
v -19 -15 0
v -19 -14 0
v -18 -14 0
v -19 -15 0
v -20 -15 0
v -20 -14 0
v -19 -14 0
v 0 -16 0
v -1 -16 0
v -1 -15 0
v 0 -15 0
v -1 -16 0
v -2 -16 0
v -2 -15 0
v -1 -15 0
v -18 -16 0
v -19 -16 0
v -19 -15 0
v -18 -15 0
v -19 -16 0
v -20 -16 0
v -20 -15 0
v -19 -15 0
v 0 -17 0
v -1 -17 0
v -1 -16 0
v 0 -16 0
v -1 -17 0
v -2 -17 0
v -2 -16 0
v -1 -16 0
v -18 -17 0
v -19 -17 0
v -19 -16 0
v -18 -16 0
v -19 -17 0
v -20 -17 0
v -20 -16 0
v -19 -16 0
v 0 -18 0
v -1 -18 0
v -1 -17 0
v 0 -17 0
v -1 -18 0
v -2 -18 0
v -2 -17 0
v -1 -17 0
v -18 -18 0
v -19 -18 0
v -19 -17 0
v -18 -17 0
v -19 -18 0
v -20 -18 0
v -20 -17 0
v -19 -17 0
v 0 -19 0
v -1 -19 0
v -1 -18 0
v 0 -18 0
v -1 -19 0
v -2 -19 0
v -2 -18 0
v -1 -18 0
v -5 -19 0
v -6 -19 0
v -6 -18 0
v -5 -18 0
v -6 -19 0
v -7 -19 0
v -7 -18 0
v -6 -18 0
v -13 -19 0
v -14 -19 0
v -14 -18 0
v -13 -18 0
v -14 -19 0
v -15 -19 0
v -15 -18 0
v -14 -18 0
v -18 -19 0
v -19 -19 0
v -19 -18 0
v -18 -18 0
v -19 -19 0
v -20 -19 0
v -20 -18 0
v -19 -18 0
v 0 -20 0
v -1 -20 0
v -1 -19 0
v 0 -19 0
v -1 -20 0
v -2 -20 0
v -2 -19 0
v -1 -19 0
v -2 -20 0
v -3 -20 0
v -3 -19 0
v -2 -19 0
v -5 -20 0
v -6 -20 0
v -6 -19 0
v -5 -19 0
v -6 -20 0
v -7 -20 0
v -7 -19 0
v -6 -19 0
v -13 -20 0
v -14 -20 0
v -14 -19 0
v -13 -19 0
v -14 -20 0
v -15 -20 0
v -15 -19 0
v -14 -19 0
v -17 -20 0
v -18 -20 0
v -18 -19 0
v -17 -19 0
v -18 -20 0
v -19 -20 0
v -19 -19 0
v -18 -19 0
v -19 -20 0
v -20 -20 0
v -20 -19 0
v -19 -19 0

# Texture cooridinates (Count = 28)
vt 0.175 0.5277778
vt 0.2 0.5277778
vt 0.2 0.5555556
vt 0.175 0.5555556
vt 0.125 0.4444444
vt 0.15 0.4444444
vt 0.15 0.4722222
vt 0.125 0.4722222
vt 0.175 0.5
vt 0.2 0.5
vt 0.1 0.5277778
vt 0.125 0.5277778
vt 0.125 0.5555556
vt 0.1 0.5555556
vt 0.15 0.5
vt 0.125 0.5
vt 0.075 0.5277778
vt 0.075 0.5555556
vt 0.075 0.4444444
vt 0.1 0.4444444
vt 0.1 0.4722222
vt 0.075 0.4722222
vt 0.05 0.5277778
vt 0.05 0.5555556
vt 0.175 0.4722222
vt 0.2 0.4722222
vt 0.15 0.5277778
vt 0.15 0.5555556

# Normal
vn 0 0 -1

# Mesh description
g Pueblo_mesh_0004

# Faces
f 1/1/1 2/2/1 3/3/1 4/4/1
f 5/5/1 6/6/1 7/7/1 8/8/1
f 9/5/1 10/6/1 11/7/1 12/8/1
f 13/9/1 14/10/1 15/2/1 16/1/1
f 17/11/1 18/12/1 19/13/1 20/14/1
f 21/8/1 22/7/1 23/15/1 24/16/1
f 25/17/1 26/11/1 27/14/1 28/18/1
f 29/1/1 30/2/1 31/3/1 32/4/1
f 33/9/1 34/10/1 35/2/1 36/1/1
f 37/11/1 38/12/1 39/13/1 40/14/1
f 41/17/1 42/11/1 43/14/1 44/18/1
f 45/1/1 46/2/1 47/3/1 48/4/1
f 49/5/1 50/6/1 51/7/1 52/8/1
f 53/5/1 54/6/1 55/7/1 56/8/1
f 57/5/1 58/6/1 59/7/1 60/8/1
f 61/5/1 62/6/1 63/7/1 64/8/1
f 65/5/1 66/6/1 67/7/1 68/8/1
f 69/19/1 70/20/1 71/21/1 72/22/1
f 73/23/1 74/17/1 75/18/1 76/24/1
f 77/25/1 78/26/1 79/10/1 80/9/1
f 81/25/1 82/26/1 83/10/1 84/9/1
f 85/16/1 86/15/1 87/27/1 88/12/1
f 89/5/1 90/6/1 91/7/1 92/8/1
f 93/5/1 94/6/1 95/7/1 96/8/1
f 97/5/1 98/6/1 99/7/1 100/8/1
f 101/15/1 102/9/1 103/1/1 104/27/1
f 105/16/1 106/15/1 107/27/1 108/12/1
f 109/5/1 110/6/1 111/7/1 112/8/1
f 113/5/1 114/6/1 115/7/1 116/8/1
f 117/15/1 118/9/1 119/1/1 120/27/1
f 121/7/1 122/25/1 123/9/1 124/15/1
f 125/23/1 126/17/1 127/18/1 128/24/1
f 129/25/1 130/26/1 131/10/1 132/9/1
f 133/11/1 134/12/1 135/13/1 136/14/1
f 137/27/1 138/1/1 139/4/1 140/28/1
f 141/12/1 142/27/1 143/28/1 144/13/1
f 145/17/1 146/11/1 147/14/1 148/18/1
f 149/23/1 150/17/1 151/18/1 152/24/1
f 153/25/1 154/26/1 155/10/1 156/9/1
f 157/23/1 158/17/1 159/18/1 160/24/1
f 161/25/1 162/26/1 163/10/1 164/9/1
f 165/7/1 166/25/1 167/9/1 168/15/1
f 169/23/1 170/17/1 171/18/1 172/24/1
f 173/23/1 174/17/1 175/18/1 176/24/1
f 177/25/1 178/26/1 179/10/1 180/9/1
f 181/23/1 182/17/1 183/18/1 184/24/1
f 185/25/1 186/26/1 187/10/1 188/9/1
f 189/16/1 190/15/1 191/27/1 192/12/1
f 193/5/1 194/6/1 195/7/1 196/8/1
f 197/19/1 198/20/1 199/21/1 200/22/1
f 201/11/1 202/12/1 203/13/1 204/14/1
f 205/20/1 206/5/1 207/8/1 208/21/1
f 209/15/1 210/9/1 211/1/1 212/27/1
f 213/12/1 214/27/1 215/28/1 216/13/1
f 217/17/1 218/11/1 219/14/1 220/18/1
f 221/23/1 222/17/1 223/18/1 224/24/1
f 225/11/1 226/12/1 227/13/1 228/14/1
f 229/27/1 230/1/1 231/4/1 232/28/1
f 233/7/1 234/25/1 235/9/1 236/15/1
f 237/23/1 238/17/1 239/18/1 240/24/1
f 241/1/1 242/2/1 243/3/1 244/4/1
f 245/9/1 246/10/1 247/2/1 248/1/1
f 249/25/1 250/26/1 251/10/1 252/9/1
f 253/16/1 254/15/1 255/27/1 256/12/1
f 257/19/1 258/20/1 259/21/1 260/22/1
f 261/25/1 262/26/1 263/10/1 264/9/1
f 265/7/1 266/25/1 267/9/1 268/15/1
f 269/25/1 270/26/1 271/10/1 272/9/1
f 273/7/1 274/25/1 275/9/1 276/15/1
f 277/11/1 278/12/1 279/13/1 280/14/1
f 281/17/1 282/11/1 283/14/1 284/18/1
f 285/25/1 286/26/1 287/10/1 288/9/1
f 289/16/1 290/15/1 291/27/1 292/12/1
f 293/19/1 294/20/1 295/21/1 296/22/1
f 297/23/1 298/17/1 299/18/1 300/24/1
f 301/25/1 302/26/1 303/10/1 304/9/1
f 305/7/1 306/25/1 307/9/1 308/15/1
f 309/1/1 310/2/1 311/3/1 312/4/1
f 313/15/1 314/9/1 315/1/1 316/27/1
f 317/7/1 318/25/1 319/9/1 320/15/1
f 321/11/1 322/12/1 323/13/1 324/14/1
f 325/27/1 326/1/1 327/4/1 328/28/1
f 329/7/1 330/25/1 331/9/1 332/15/1
f 333/19/1 334/20/1 335/21/1 336/22/1
f 337/25/1 338/26/1 339/10/1 340/9/1
f 341/12/1 342/27/1 343/28/1 344/13/1
f 345/17/1 346/11/1 347/14/1 348/18/1
f 349/17/1 350/11/1 351/14/1 352/18/1
f 353/25/1 354/26/1 355/10/1 356/9/1
f 357/7/1 358/25/1 359/9/1 360/15/1
f 361/23/1 362/17/1 363/18/1 364/24/1
f 365/23/1 366/17/1 367/18/1 368/24/1
f 369/25/1 370/26/1 371/10/1 372/9/1
f 373/16/1 374/15/1 375/27/1 376/12/1
f 377/19/1 378/20/1 379/21/1 380/22/1
f 381/23/1 382/17/1 383/18/1 384/24/1
f 385/25/1 386/26/1 387/10/1 388/9/1
f 389/12/1 390/27/1 391/28/1 392/13/1
f 393/17/1 394/11/1 395/14/1 396/18/1
f 397/23/1 398/17/1 399/18/1 400/24/1
f 401/25/1 402/26/1 403/10/1 404/9/1
f 405/7/1 406/25/1 407/9/1 408/15/1
f 409/23/1 410/17/1 411/18/1 412/24/1
f 413/19/1 414/20/1 415/21/1 416/22/1
f 417/25/1 418/26/1 419/10/1 420/9/1
f 421/12/1 422/27/1 423/28/1 424/13/1
f 425/27/1 426/1/1 427/4/1 428/28/1
f 429/12/1 430/27/1 431/28/1 432/13/1
f 433/27/1 434/1/1 435/4/1 436/28/1
f 437/7/1 438/25/1 439/9/1 440/15/1
f 441/20/1 442/5/1 443/8/1 444/21/1
f 445/7/1 446/25/1 447/9/1 448/15/1
f 449/11/1 450/12/1 451/13/1 452/14/1
f 453/27/1 454/1/1 455/4/1 456/28/1
f 457/16/1 458/15/1 459/27/1 460/12/1
f 461/15/1 462/9/1 463/1/1 464/27/1
f 465/16/1 466/15/1 467/27/1 468/12/1
f 469/15/1 470/9/1 471/1/1 472/27/1
f 473/12/1 474/27/1 475/28/1 476/13/1
f 477/17/1 478/11/1 479/14/1 480/18/1
f 481/25/1 482/26/1 483/10/1 484/9/1

